PathFileType  4	(X/Y/Z) C:\Users\antoi\Documents\MyRepositories\mobilecap\ResultsAnalysis
DataRate	CameraRate	NumFrames	NumMarkers	Units	OrigDataRate	OrigDataStartFrame	OrigNumFrames
100.0	100.0	4	51	mm	100.0	49	128
Frame#	Time	r_knee			r_shank_antsup			r_ankle			r_calc			r_5meta			r_toe			L_knee			L_shank_antsup			L_ankle			L_calc			L_5meta			L_toe			r_sh2			r_sh3			r_sh4			L_sh2			L_sh3			r_thigh1			r_thigh2			r_thigh3			r_thigh4			r_thigh5			L_thigh1			L_thigh2			L_thigh3			L_thigh4			r.ASIS			r.PSIS			L.ASIS			L.PSIS			C7			R_Shoulder			L_Shoulder			R_Sternum			L_Sternum			R_humerus			R_elbow_med			R_elbow_lat			R_forearm			R_wrist_radius			R_wrist_ulna			L_humerus			L_elbow_med			L_elbow_lat			L_forearm			L_wrist_radius			L_wrist_ulna			R_HJC			L_HJC			R_HJC_reg			L_HJC_reg			
		X1	Y1	Z1	X2	Y2	Z2	X3	Y3	Z3	X4	Y4	Z4	X5	Y5	Z5	X6	Y6	Z6	X7	Y7	Z7	X8	Y8	Z8	X9	Y9	Z9	X10	Y10	Z10	X11	Y11	Z11	X12	Y12	Z12	X13	Y13	Z13	X14	Y14	Z14	X15	Y15	Z15	X16	Y16	Z16	X17	Y17	Z17	X18	Y18	Z18	X19	Y19	Z19	X20	Y20	Z20	X21	Y21	Z21	X22	Y22	Z22	X23	Y23	Z23	X24	Y24	Z24	X25	Y25	Z25	X26	Y26	Z26	X27	Y27	Z27	X28	Y28	Z28	X29	Y29	Z29	X30	Y30	Z30	X31	Y31	Z31	X32	Y32	Z32	X33	Y33	Z33	X34	Y34	Z34	X35	Y35	Z35	X36	Y36	Z36	X37	Y37	Z37	X38	Y38	Z38	X39	Y39	Z39	X40	Y40	Z40	X41	Y41	Z41	X42	Y42	Z42	X43	Y43	Z43	X44	Y44	Z44	X45	Y45	Z45	X46	Y46	Z46	X47	Y47	Z47	X48	Y48	Z48	X49	Y49	Z49	X50	Y50	Z50	X51	Y51	Z51	

49	0.48000000	418.13474	482.67970	-84.66983	422.17774	399.54271	-102.60410	198.30260	137.37974	-121.40490	122.23010	130.37983	-158.49145	272.28773	45.06226	-92.16752	329.55004	58.90441	-146.48799	683.68028	503.27602	-382.02851	738.73411	425.32720	-390.87411	767.73178	108.01486	-382.70021	716.96766	54.71341	-335.24231	889.27530	77.59868	-415.92597	920.90585	120.75532	-365.82784	348.10792	310.58192	-83.40557	359.80496	445.84094	-72.33524	290.21838	357.48760	-75.17885	650.19373	412.51505	-389.67327	677.97046	294.12506	-402.58595	559.38060	777.95142	-52.40782	531.09147	669.36698	-61.60963	470.56495	660.37166	-36.08481	450.12129	802.55646	-30.08003	421.27408	689.04277	-48.38352	606.67394	760.50340	-420.72998	668.68060	639.03200	-400.45444	508.47939	713.00454	-383.56100	576.23053	589.03391	-375.10890	603.59002	951.16959	-91.34795	412.02857	990.49986	-176.83533	606.61953	937.33669	-343.72252	403.04857	989.79275	-276.81386	409.63462	1404.86542	-272.93500	540.11952	1398.01863	-112.76239	455.99429	1336.82617	-452.98571	553.79624	1370.66255	-271.15499	550.45036	1363.92569	-313.47773	584.79350	1290.03876	-29.04667	570.02906	1068.23356	7.57079	605.20120	1110.28393	59.89431	731.14247	1066.88990	3.60257	838.65682	999.26887	-45.76360	841.13897	984.54612	-13.45012	447.81664	1220.48732	-505.49110	382.05636	996.86923	-434.52837	389.21650	1015.41651	-511.68064	470.49810	929.30546	-517.42753	537.38722	785.55366	-521.44839	507.07933	777.94490	-538.92079	523.42151	872.22712	-115.72106	525.74622	865.14834	-322.05212	537.76588	872.68122	-119.89808	522.84176	871.50998	-286.05739	
50	0.49000000	435.58776	480.38660	-83.87990	437.11675	396.71141	-101.25377	204.41346	142.78206	-120.42007	128.62016	139.51087	-157.76716	273.93497	46.06169	-92.13331	331.32389	57.64009	-146.19636	696.50347	502.09395	-382.69978	750.74411	422.62258	-390.90572	772.53222	104.98841	-381.53975	719.14380	55.60792	-334.50303	892.39842	71.13765	-413.77813	925.71267	112.91674	-363.38687	359.74447	310.73307	-82.23674	376.37560	445.40611	-71.94313	303.50994	359.69190	-74.81946	661.86940	411.79480	-389.85155	687.02430	292.78474	-402.15541	574.17546	776.78629	-53.71110	546.97806	667.87820	-62.15285	486.43857	658.52981	-36.66616	464.67459	800.57261	-31.84751	436.98665	686.86114	-49.32846	621.21212	759.91671	-422.16216	682.79189	638.16539	-401.59533	522.72596	712.71597	-385.28716	590.11761	588.53543	-376.22728	617.23015	950.04572	-92.33196	425.81520	988.79878	-178.30148	620.84918	937.40092	-344.93991	416.90120	988.65416	-278.27901	422.09368	1403.47557	-276.58297	551.89195	1398.20253	-115.90374	469.05071	1333.86351	-455.82872	566.27903	1369.42415	-273.94065	563.00031	1362.11579	-316.32277	595.85579	1290.77486	-30.94315	580.25798	1069.30184	6.97366	614.88852	1111.58283	59.53905	741.28248	1067.28219	5.11274	849.40766	999.05035	-42.48011	851.24638	984.43177	-10.05084	461.73524	1217.01472	-507.41380	397.79424	993.32410	-435.05544	404.70781	1011.40675	-512.31945	485.86341	925.17423	-517.99190	552.31109	781.15899	-521.69664	521.87857	773.65121	-539.05040	537.48000	870.83038	-117.41369	540.33528	864.74067	-323.76778	552.03417	871.14250	-121.42283	537.20795	870.90534	-287.71423	
51	0.50000000	454.60597	477.92926	-82.68254	453.45472	393.79884	-99.34748	211.83347	148.96827	-119.43824	136.73825	149.95419	-157.18702	275.81295	47.47713	-92.14204	333.27622	56.32104	-145.93416	708.62281	500.68568	-383.17325	762.79275	420.00340	-390.81252	777.59810	102.45282	-380.26604	721.60419	56.90980	-333.68592	895.64385	64.97749	-411.50306	930.62565	105.11048	-360.66793	372.62074	311.16138	-80.73975	394.39153	445.04360	-71.41789	318.24379	362.19275	-74.47243	673.64740	411.00857	-389.93811	696.45377	291.49803	-401.56336	589.47705	775.71854	-55.13976	563.76977	666.40157	-62.72479	503.21503	656.51414	-37.30571	479.64151	798.33962	-33.82475	453.58922	684.39140	-50.38907	635.17543	758.96911	-423.78921	696.12612	636.82971	-402.86592	536.38081	712.31811	-386.61462	603.17093	587.84498	-376.88566	630.95371	949.11251	-93.56230	439.67707	987.12756	-179.76690	635.14533	937.71751	-346.29873	430.80439	987.58255	-279.75576	434.66865	1402.06684	-280.34043	563.60490	1398.40105	-119.12756	482.27978	1330.93826	-458.70346	578.78730	1368.22132	-276.76305	575.63487	1360.34067	-319.20276	606.87867	1291.51242	-32.95280	590.10471	1070.44718	6.35300	624.25267	1112.91713	59.16311	751.09247	1067.61412	6.65165	859.69661	998.68366	-39.06332	860.89681	984.17270	-6.53117	475.86064	1213.59945	-509.38119	413.86573	989.84158	-435.62892	420.54762	1007.43192	-512.98782	501.59820	921.11858	-518.58188	567.57142	776.84106	-521.99018	537.07879	769.45240	-539.22577	551.74816	869.55198	-119.24679	555.02961	864.52404	-325.62360	566.49165	869.74264	-123.20313	551.73097	870.50212	-289.55069	
52	0.51000000	475.25848	475.22873	-81.02306	471.32120	390.75434	-96.92316	220.75609	155.94222	-118.49592	146.89491	161.74473	-156.77798	277.99259	49.49989	-92.24220	335.50937	55.09654	-145.67648	720.35137	499.12491	-383.48319	774.92674	417.44895	-390.66274	782.67849	100.41965	-379.00365	724.24279	58.36957	-332.87876	898.84751	59.32494	-409.43473	935.38321	97.56243	-357.98766	386.95083	311.77673	-78.94723	414.02476	444.63734	-70.63765	334.63907	364.87318	-74.05775	685.56792	410.23760	-390.00910	706.17722	290.31159	-400.93146	605.25513	774.68597	-56.63827	581.47225	664.87755	-63.22862	520.89161	654.23990	-37.90197	494.99506	795.76100	-35.95554	471.09049	681.52639	-51.45968	648.64834	757.73430	-425.53284	708.85409	635.15063	-404.22467	549.49408	711.73957	-387.63070	615.53785	586.96771	-377.16696	644.69703	948.36758	-95.05606	453.52683	985.43667	-181.27496	649.42073	938.15593	-347.77886	444.67446	986.51490	-281.28360	447.33958	1400.56847	-284.18886	575.24175	1398.54029	-122.41675	495.69502	1328.01147	-461.59915	591.31677	1366.98561	-279.60499	588.34847	1358.56290	-322.09279	617.82099	1292.20218	-35.03804	599.58926	1071.62460	5.75408	633.31617	1114.24906	58.79781	760.58810	1067.87694	8.22144	869.54055	998.16137	-35.53910	870.12191	983.78509	-2.91748	490.18613	1210.21098	-511.39694	430.25489	986.39199	-436.26166	436.72004	1003.46794	-513.69884	517.67331	917.12626	-519.20063	583.12479	772.58826	-522.37319	552.67355	765.32654	-539.43529	566.13697	868.38201	-121.19347	569.74323	864.38802	-327.59019	581.07229	868.42622	-125.24146	566.35191	870.22082	-291.54927	
